<mxfile host="65bd71144e">
    <diagram name="Gohopper Architecture" id="architecture">
        <mxGraphModel dx="1984" dy="1435" grid="1" gridSize="10" guides="1" tooltips="1" connect="1" arrows="1" fold="1" page="1" pageScale="1" pageWidth="1169" pageHeight="827" math="0" shadow="0">
            <root>
                <mxCell id="0"/>
                <mxCell id="1" parent="0"/>
                <mxCell id="publisher" value="Publisher&lt;br&gt;&lt;span style=&quot;font-weight: normal;&quot;&gt;&lt;font style=&quot;color: rgb(79, 79, 79);&quot;&gt;(cmd/publisher)&lt;/font&gt;&lt;/span&gt;&lt;br&gt;&lt;font style=&quot;color: rgb(79, 79, 79); font-size: 10px;&quot;&gt;Continuous + CLI Mode&lt;/font&gt;&lt;br&gt;&lt;font style=&quot;color: rgb(79, 79, 79); font-size: 9px;&quot;&gt;Structured Messages&lt;/font&gt;" style="rounded=1;whiteSpace=wrap;html=1;fillColor=#d5e8d4;strokeColor=#82b366;fontSize=12;fontStyle=1;" parent="1" vertex="1">
                    <mxGeometry x="30" y="100" width="120" height="80" as="geometry"/>
                </mxCell>
                <mxCell id="rabbitmq" value="RabbitMQ&lt;br&gt;&lt;font style=&quot;color: rgb(79, 79, 79); font-weight: normal;&quot;&gt;(5672/15672)&lt;/font&gt;&lt;br&gt;&lt;font style=&quot;color: rgb(79, 79, 79); font-size: 10px;&quot;&gt;Connection Retry&lt;/font&gt;" style="rounded=1;whiteSpace=wrap;html=1;fillColor=#fff2cc;strokeColor=#d6b656;fontSize=12;fontStyle=1;" parent="1" vertex="1">
                    <mxGeometry x="300" y="100" width="120" height="70" as="geometry"/>
                </mxCell>
                <mxCell id="exchange" value="Exchange&lt;br&gt;&lt;font style=&quot;color: rgb(79, 79, 79);&quot;&gt;(events_exchange)&lt;/font&gt;" style="ellipse;whiteSpace=wrap;html=1;fillColor=#e1d5e7;strokeColor=#9673a6;fontSize=11;" parent="1" vertex="1">
                    <mxGeometry x="300" y="200" width="120" height="40" as="geometry"/>
                </mxCell>
                <mxCell id="mainQueue" value="Main Queue&lt;br&gt;&lt;font style=&quot;color: rgb(79, 79, 79);&quot;&gt;(events)&lt;/font&gt;" style="rounded=1;whiteSpace=wrap;html=1;fillColor=#dae8fc;strokeColor=#6c8ebf;fontSize=11;" parent="1" vertex="1">
                    <mxGeometry x="400" y="270" width="100" height="50" as="geometry"/>
                </mxCell>
                <mxCell id="dlq" value="Dead Letter Queue&lt;br&gt;&lt;font style=&quot;color: rgb(79, 79, 79);&quot;&gt;(events_dlq)&lt;/font&gt;" style="rounded=1;whiteSpace=wrap;html=1;fillColor=#f8cecc;strokeColor=#b85450;fontSize=11;" parent="1" vertex="1">
                    <mxGeometry x="240" y="290" width="100" height="50" as="geometry"/>
                </mxCell>
                <mxCell id="consumer" value="Consumer&lt;br&gt;&lt;span style=&quot;font-weight: normal;&quot;&gt;&lt;font style=&quot;color: rgb(79, 79, 79);&quot;&gt;(cmd/consumer)&lt;/font&gt;&lt;/span&gt;&lt;br&gt;&lt;font style=&quot;color: rgb(79, 79, 79); font-size: 10px;&quot;&gt;Worker Pool&lt;/font&gt;&lt;br&gt;&lt;font style=&quot;color: rgb(79, 79, 79); font-size: 9px;&quot;&gt;WaitGroup + SIGINT&lt;/font&gt;" style="rounded=1;whiteSpace=wrap;html=1;fillColor=#dae8fc;strokeColor=#6c8ebf;fontSize=12;fontStyle=1;" parent="1" vertex="1">
                    <mxGeometry x="560" y="90" width="120" height="80" as="geometry"/>
                </mxCell>
                <mxCell id="workerPool" value="Worker Pool&lt;br&gt;&lt;font style=&quot;color: rgb(79, 79, 79);&quot;&gt;(internal/processor)&lt;/font&gt;" style="rounded=1;whiteSpace=wrap;html=1;fillColor=#ffe6cc;strokeColor=#d79b00;fontSize=11;" parent="1" vertex="1">
                    <mxGeometry x="530" y="260" width="180" height="50" as="geometry"/>
                </mxCell>
                <mxCell id="worker1" value="Worker 1" style="rounded=1;whiteSpace=wrap;html=1;fillColor=#ffe6cc;strokeColor=#d79b00;fontSize=10;" parent="1" vertex="1">
                    <mxGeometry x="530" y="370" width="50" height="30" as="geometry"/>
                </mxCell>
                <mxCell id="worker2" value="Worker 2" style="rounded=1;whiteSpace=wrap;html=1;fillColor=#ffe6cc;strokeColor=#d79b00;fontSize=10;" parent="1" vertex="1">
                    <mxGeometry x="590" y="370" width="50" height="30" as="geometry"/>
                </mxCell>
                <mxCell id="worker3" value="Worker N" style="rounded=1;whiteSpace=wrap;html=1;fillColor=#ffe6cc;strokeColor=#d79b00;fontSize=10;" parent="1" vertex="1">
                    <mxGeometry x="650" y="370" width="50" height="30" as="geometry"/>
                </mxCell>
                <mxCell id="queueManager" value="Queue Manager&lt;br&gt;&lt;font style=&quot;color: rgb(79, 79, 79);&quot;&gt;(internal/queue)&lt;/font&gt;" style="rounded=1;whiteSpace=wrap;html=1;fillColor=#f5f5f5;strokeColor=#666666;fontSize=11;" parent="1" vertex="1">
                    <mxGeometry x="300" y="390" width="120" height="50" as="geometry"/>
                </mxCell>
                <mxCell id="configs" value="Configs&lt;br&gt;&lt;font style=&quot;color: rgb(79, 79, 79);&quot;&gt;(configs/)&lt;/font&gt;" style="rounded=1;whiteSpace=wrap;html=1;fillColor=#f5f5f5;strokeColor=#666666;fontSize=11;" parent="1" vertex="1">
                    <mxGeometry x="50" y="400" width="80" height="40" as="geometry"/>
                </mxCell>
                <mxCell id="env" value=".env" style="rounded=1;whiteSpace=wrap;html=1;fillColor=#f5f5f5;strokeColor=#666666;fontSize=11;" parent="1" vertex="1">
                    <mxGeometry x="590" y="-10" width="60" height="40" as="geometry"/>
                </mxCell>
                <mxCell id="messageSchema" value="Message Schema&lt;br&gt;&lt;font style=&quot;color: rgb(79, 79, 79); font-size: 10px;&quot;&gt;EventMessage&lt;/font&gt;&lt;br&gt;&lt;font style=&quot;color: rgb(79, 79, 79); font-size: 9px;&quot;&gt;JSON Encoder&lt;/font&gt;" style="rounded=1;whiteSpace=wrap;html=1;fillColor=#e1d5e7;strokeColor=#9673a6;fontSize=11;" vertex="1" parent="1">
                    <mxGeometry x="-60" y="240" width="120" height="60" as="geometry"/>
                </mxCell>
                <mxCell id="conn1" value="" style="endArrow=classic;html=1;rounded=0;strokeWidth=2;strokeColor=#82b366;" parent="1" source="publisher" target="rabbitmq" edge="1">
                    <mxGeometry width="50" height="50" relative="1" as="geometry">
                        <mxPoint x="200" y="130" as="sourcePoint"/>
                        <mxPoint x="250" y="80" as="targetPoint"/>
                    </mxGeometry>
                </mxCell>
                <mxCell id="conn2" value="" style="endArrow=classic;html=1;rounded=0;strokeWidth=2;strokeColor=#d6b656;" parent="1" source="rabbitmq" target="exchange" edge="1">
                    <mxGeometry width="50" height="50" relative="1" as="geometry">
                        <mxPoint x="360" y="160" as="sourcePoint"/>
                        <mxPoint x="360" y="200" as="targetPoint"/>
                    </mxGeometry>
                </mxCell>
                <mxCell id="conn3" value="" style="endArrow=classic;html=1;rounded=0;strokeWidth=2;strokeColor=#6c8ebf;" parent="1" source="exchange" target="mainQueue" edge="1">
                    <mxGeometry width="50" height="50" relative="1" as="geometry">
                        <mxPoint x="320" y="240" as="sourcePoint"/>
                        <mxPoint x="250" y="300" as="targetPoint"/>
                    </mxGeometry>
                </mxCell>
                <mxCell id="conn4" value="" style="endArrow=classic;html=1;rounded=0;strokeWidth=2;strokeColor=#b85450;" parent="1" source="exchange" target="dlq" edge="1">
                    <mxGeometry width="50" height="50" relative="1" as="geometry">
                        <mxPoint x="400" y="240" as="sourcePoint"/>
                        <mxPoint x="450" y="300" as="targetPoint"/>
                    </mxGeometry>
                </mxCell>
                <mxCell id="conn5" value="" style="endArrow=classic;html=1;rounded=0;strokeWidth=2;strokeColor=#82b366;" parent="1" source="mainQueue" target="consumer" edge="1">
                    <mxGeometry width="50" height="50" relative="1" as="geometry">
                        <mxPoint x="300" y="325" as="sourcePoint"/>
                        <mxPoint x="550" y="160" as="targetPoint"/>
                    </mxGeometry>
                </mxCell>
                <mxCell id="conn6" value="" style="endArrow=classic;html=1;rounded=0;strokeWidth=2;strokeColor=#d79b00;" parent="1" source="consumer" target="workerPool" edge="1">
                    <mxGeometry width="50" height="50" relative="1" as="geometry">
                        <mxPoint x="610" y="160" as="sourcePoint"/>
                        <mxPoint x="610" y="200" as="targetPoint"/>
                    </mxGeometry>
                </mxCell>
                <mxCell id="conn7" value="" style="endArrow=classic;html=1;rounded=0;strokeWidth=2;strokeColor=#d79b00;" parent="1" source="workerPool" target="worker1" edge="1">
                    <mxGeometry width="50" height="50" relative="1" as="geometry">
                        <mxPoint x="610" y="300" as="sourcePoint"/>
                        <mxPoint x="555" y="330" as="targetPoint"/>
                    </mxGeometry>
                </mxCell>
                <mxCell id="conn8" value="" style="endArrow=classic;html=1;rounded=0;strokeWidth=2;strokeColor=#d79b00;" parent="1" source="workerPool" target="worker2" edge="1">
                    <mxGeometry width="50" height="50" relative="1" as="geometry">
                        <mxPoint x="610" y="300" as="sourcePoint"/>
                        <mxPoint x="615" y="330" as="targetPoint"/>
                    </mxGeometry>
                </mxCell>
                <mxCell id="conn9" value="" style="endArrow=classic;html=1;rounded=0;strokeWidth=2;strokeColor=#d79b00;" parent="1" source="workerPool" target="worker3" edge="1">
                    <mxGeometry width="50" height="50" relative="1" as="geometry">
                        <mxPoint x="610" y="300" as="sourcePoint"/>
                        <mxPoint x="675" y="330" as="targetPoint"/>
                    </mxGeometry>
                </mxCell>
                <mxCell id="conn10" value="" style="endArrow=classic;html=1;rounded=0;strokeWidth=1;strokeColor=#666666;dashed=1;" parent="1" source="queueManager" target="mainQueue" edge="1">
                    <mxGeometry width="50" height="50" relative="1" as="geometry">
                        <mxPoint x="170" y="325" as="sourcePoint"/>
                        <mxPoint x="200" y="325" as="targetPoint"/>
                    </mxGeometry>
                </mxCell>
                <mxCell id="conn11" value="" style="endArrow=classic;html=1;rounded=0;strokeWidth=1;strokeColor=#666666;dashed=1;" parent="1" source="queueManager" target="dlq" edge="1">
                    <mxGeometry width="50" height="50" relative="1" as="geometry">
                        <mxPoint x="170" y="325" as="sourcePoint"/>
                        <mxPoint x="400" y="325" as="targetPoint"/>
                    </mxGeometry>
                </mxCell>
                <mxCell id="conn12" value="" style="endArrow=classic;html=1;rounded=0;strokeWidth=1;strokeColor=#666666;dashed=1;" parent="1" source="configs" target="publisher" edge="1">
                    <mxGeometry width="50" height="50" relative="1" as="geometry">
                        <mxPoint x="90" y="400" as="sourcePoint"/>
                        <mxPoint x="110" y="160" as="targetPoint"/>
                    </mxGeometry>
                </mxCell>
                <mxCell id="conn14" value="" style="endArrow=classic;html=1;rounded=0;strokeWidth=1;strokeColor=#9673a6;dashed=1;" edge="1" parent="1" source="messageSchema" target="publisher">
                    <mxGeometry width="50" height="50" relative="1" as="geometry">
                        <mxPoint x="90" y="200" as="sourcePoint"/>
                        <mxPoint x="90" y="180" as="targetPoint"/>
                    </mxGeometry>
                </mxCell>
                <mxCell id="conn13" value="" style="endArrow=classic;html=1;rounded=0;strokeWidth=1;strokeColor=#666666;dashed=1;" parent="1" source="env" target="consumer" edge="1">
                    <mxGeometry width="50" height="50" relative="1" as="geometry">
                        <mxPoint x="180" y="420" as="sourcePoint"/>
                        <mxPoint x="610" y="160" as="targetPoint"/>
                    </mxGeometry>
                </mxCell>
                <mxCell id="label1" value="Publish Events" style="text;html=1;strokeColor=none;fillColor=none;align=center;verticalAlign=middle;whiteSpace=wrap;rounded=0;fontSize=10;fontColor=#82b366;" parent="1" vertex="1">
                    <mxGeometry x="190" y="110" width="80" height="20" as="geometry"/>
                </mxCell>
                <mxCell id="label2" value="Consume Events" style="text;html=1;strokeColor=none;fillColor=none;align=center;verticalAlign=middle;whiteSpace=wrap;rounded=0;fontSize=10;fontColor=#82b366;" parent="1" vertex="1">
                    <mxGeometry x="480" y="120" width="80" height="20" as="geometry"/>
                </mxCell>
                <mxCell id="label3" value="Worker Pool" style="text;html=1;strokeColor=none;fillColor=none;align=center;verticalAlign=middle;whiteSpace=wrap;rounded=0;fontSize=10;fontColor=#d79b00;" parent="1" vertex="1">
                    <mxGeometry x="620" y="200" width="60" height="20" as="geometry"/>
                </mxCell>
                <mxCell id="label4" value="Config" style="text;html=1;strokeColor=none;fillColor=none;align=center;verticalAlign=middle;whiteSpace=wrap;rounded=0;fontSize=10;fontColor=#666666;" parent="1" vertex="1">
                    <mxGeometry x="90" y="380" width="40" height="20" as="geometry"/>
                </mxCell>
            </root>
        </mxGraphModel>
    </diagram>
</mxfile>